<svg width="20" height="16" viewBox="0 0 20 16" fill="none" xmlns="http://www.w3.org/2000/svg">
<path d="M1.5 3.5C2.32843 3.5 3 2.82843 3 2C3 1.17157 2.32843 0.5 1.5 0.5C0.671573 0.5 0 1.17157 0 2C0 2.82843 0.671573 3.5 1.5 3.5Z" fill="black"/>
<path d="M6 1C5.44772 1 5 1.44772 5 2C5 2.55228 5.44772 3 6 3H19C19.5523 3 20 2.55228 20 2C20 1.44772 19.5523 1 19 1H6Z" fill="black"/>
<path d="M6 7C5.44772 7 5 7.44772 5 8C5 8.55229 5.44772 9 6 9H19C19.5523 9 20 8.55229 20 8C20 7.44772 19.5523 7 19 7H6Z" fill="black"/>
<path d="M5 14C5 13.4477 5.44772 13 6 13H19C19.5523 13 20 13.4477 20 14C20 14.5523 19.5523 15 19 15H6C5.44772 15 5 14.5523 5 14Z" fill="black"/>
<path d="M3 8C3 8.82843 2.32843 9.5 1.5 9.5C0.671573 9.5 0 8.82843 0 8C0 7.17157 0.671573 6.5 1.5 6.5C2.32843 6.5 3 7.17157 3 8Z" fill="black"/>
<path d="M1.5 15.5C2.32843 15.5 3 14.8284 3 14C3 13.1716 2.32843 12.5 1.5 12.5C0.671573 12.5 0 13.1716 0 14C0 14.8284 0.671573 15.5 1.5 15.5Z" fill="black"/>
</svg>
